<svg xmlns="http://www.w3.org/2000/svg" viewBox="0 0 800 640" fill="none">
  <rect width="800" height="640" fill="#F8F8F6"/>

  <g transform="translate(252 48)">
    <path d="M44 32C126 18 210 18 292 28L282 307C203 301 122 302 42 309L44 32Z" fill="#0A5E56"/>
    <path d="M37 38C44 123 44 210 36 301" stroke="#F7F7F4" stroke-width="5.5" stroke-linecap="round" opacity=".95"/>
    <path d="M43 34C125 21 208 21 289 31" stroke="#0F473F" stroke-width="3" opacity=".35"/>
    <path d="M42 308C121 299 202 298 281 305" stroke="#F7F7F4" stroke-width="4.5" stroke-linecap="round" opacity=".9"/>

    <g transform="translate(148 66)" fill="#FFFFFF">
      <rect x="44" y="84" width="12" height="74" rx="6"/>
      <rect x="47" y="154" width="6" height="21" rx="3"/>
      <path d="M50 172C42 172 34 176 30 183H70C66 176 58 172 50 172Z"/>
      <g>
        <path d="M50 20C54 44 54 66 50 88C46 66 46 44 50 20Z"/>
        <path d="M50 28C39 36 31 47 25 62C35 56 43 48 50 38C57 48 65 56 75 62C69 47 61 36 50 28Z"/>
        <path d="M50 33C32 36 18 43 7 55C22 55 36 50 50 40C64 50 78 55 93 55C82 43 68 36 50 33Z"/>
        <path d="M50 38C34 30 21 23 9 10C12 27 20 39 33 49C39 45 44 41 50 38Z"/>
        <path d="M50 38C66 30 79 23 91 10C88 27 80 39 67 49C61 45 56 41 50 38Z"/>
        <path d="M50 42C38 21 31 4 28 0C40 8 48 20 50 31C52 20 60 8 72 0C69 4 62 21 50 42Z"/>
      </g>
      <path d="M-2 197C25 176 64 166 104 170C140 174 171 186 194 201C173 193 151 191 129 193C99 196 71 208 50 228C29 208 1 196-29 193C-51 191-73 193-94 201C-71 186-40 174-4 170C36 166 75 176 102 197" transform="translate(50 0) scale(.92)" />
      <path d="M15 205C25 215 35 224 47 232" stroke="#FFFFFF" stroke-width="10" stroke-linecap="round"/>
      <path d="M85 205C75 215 65 224 53 232" stroke="#FFFFFF" stroke-width="10" stroke-linecap="round"/>
      <circle cx="12" cy="205" r="7"/>
      <circle cx="88" cy="205" r="7"/>
    </g>
  </g>

  <text
    x="400"
    y="472"
    text-anchor="middle"
    fill="#073A34"
    font-family="'Segoe UI', Tahoma, Arial, sans-serif"
    font-size="78"
    font-weight="500"
    direction="rtl"
    unicode-bidi="plaintext"
  >وزارة التجارة</text>
  <text
    x="400"
    y="554"
    text-anchor="middle"
    fill="#073A34"
    font-family="'Segoe UI', Tahoma, Arial, sans-serif"
    font-size="54"
    font-weight="600"
  >Ministry of Commerce</text>
</svg>
