<svg width="1200" height="900" viewBox="0 0 1200 900" fill="none" xmlns="http://www.w3.org/2000/svg">
  <rect width="1200" height="900" rx="64" fill="#F8FBFD"/>
  <rect x="48" y="48" width="1104" height="804" rx="56" fill="url(#bg)"/>
  <circle cx="930" cy="220" r="150" fill="#D8EEF6" fill-opacity="0.75"/>
  <circle cx="220" cy="700" r="170" fill="#BFDCEB" fill-opacity="0.65"/>
  <rect x="148" y="170" width="904" height="560" rx="40" fill="white" fill-opacity="0.86"/>
  <rect x="456" y="256" width="288" height="272" rx="56" fill="#1A587F"/>
  <path d="M514 370C514 301.5 569.5 246 638 246H692C705.3 246 716 256.7 716 270V504C716 517.3 705.3 528 692 528H638C569.5 528 514 472.5 514 404V370Z" fill="#2D7BA9"/>
  <path d="M570 328H660V456H570V328Z" fill="#EAF7FC"/>
  <text x="600" y="684" text-anchor="middle" fill="#103654" font-family="Tahoma, Arial, sans-serif" font-size="112" font-weight="700">لارينا</text>
  <text x="600" y="768" text-anchor="middle" fill="#4B7895" font-family="Tahoma, Arial, sans-serif" font-size="44" font-weight="600" letter-spacing="8">LARINA</text>
  <defs>
    <linearGradient id="bg" x1="124" y1="118" x2="1084" y2="818" gradientUnits="userSpaceOnUse">
      <stop stop-color="#E8F7FF"/>
      <stop offset="1" stop-color="#D3E6F2"/>
    </linearGradient>
  </defs>
</svg>
